<svg xmlns="http://www.w3.org/2000/svg" xmlns:xlink="http://www.w3.org/1999/xlink" width="40" height="40" viewBox="0 0 40 40" fill="none"><defs><rect id="path_0" x="0" y="0" width="40" height="40" /></defs><g opacity="1" transform="translate(0 0)  rotate(0 20 20)"><g opacity="1" transform="translate(0 0)  rotate(0 20 20)"><mask id="bg-mask" fill="white"><use xlink:href="#path_0"></use></mask><g mask="url(#bg-mask)" ><path id="分组 1" fill-rule="evenodd" style="fill:#171C27" transform="translate(8 4.26)  rotate(0 12 14.737686307047458)" opacity="1" d="M13.5181 2.24C14.5881 0.98 16.3881 0.06 17.8681 0C18.0481 1.73 17.3681 3.46 16.3281 4.73C15.2981 5.94 13.6081 6.9 11.9681 6.8C11.7381 5.1 12.5681 3.33 13.5181 2.24Z M1.24 10.9069C2.52 8.65694 4.83 7.23694 7.34 7.19694C8.41379 7.17422 9.45853 7.59048 10.3715 7.95426C11.0655 8.23076 11.6834 8.47694 12.18 8.47694C12.6404 8.47694 13.2531 8.23487 13.9658 7.95329C15.0795 7.51323 16.4374 6.97669 17.84 7.11694C18.8 7.16694 21.49 7.52694 23.22 10.0369C23.2147 10.0406 23.2044 10.0472 23.1897 10.0566C22.8428 10.2787 20.0016 12.0981 20.04 15.6469C20.08 20.1269 23.96 21.5869 24 21.6069C23.96 21.7169 23.38 23.7369 21.96 25.8069C20.73 27.5969 19.46 29.4069 17.45 29.4369C16.4815 29.4565 15.8361 29.1746 15.1648 28.8815C14.4637 28.5754 13.7346 28.2569 12.58 28.2569C10.33 28.2569 9.62 29.4069 7.75 29.4769C5.82 29.5569 4.33 27.5169 3.1 25.7369C0.57 22.0869 -1.37 15.3869 1.24 10.9069Z " /></g></g></g></svg>