<svg xmlns="http://www.w3.org/2000/svg" xmlns:xlink="http://www.w3.org/1999/xlink" width="40" height="40" viewBox="0 0 40 40" fill="none"><defs><rect id="path_0" x="0" y="0" width="40" height="40" /></defs><g opacity="1" transform="translate(0 0)  rotate(0 20 20)"><g opacity="1" transform="translate(0 0)  rotate(0 20 20)"><mask id="bg-mask" fill="white"><use xlink:href="#path_0"></use></mask><g mask="url(#bg-mask)" ><g opacity="1" transform="translate(8 8)  rotate(0 12 12)"><path id="路径 1" fill-rule="evenodd" style="fill:#171C27" transform="translate(0 12.599999999999998)  rotate(0 5.700000000000002 5.700000000000002)" opacity="1" d="M11.4,0L0,0L0,11.4L11.4,11.4L11.4,0Z " /><path id="路径 2" fill-rule="evenodd" style="fill:#171C27" transform="translate(12.599999999999998 12.599999999999998)  rotate(0 5.700000000000002 5.700000000000002)" opacity="1" d="M11.4,0L0,0L0,11.4L11.4,11.4L11.4,0Z " /><path id="路径 3" fill-rule="evenodd" style="fill:#171C27" transform="translate(0 0)  rotate(0 5.700000000000002 5.700000000000002)" opacity="1" d="M11.4,0L0,0L0,11.4L11.4,11.4L11.4,0Z " /><path id="路径 4" fill-rule="evenodd" style="fill:#171C27" transform="translate(12.599999999999998 0)  rotate(0 5.700000000000002 5.700000000000002)" opacity="1" d="M11.4,0L0,0L0,11.4L11.4,11.4L11.4,0Z " /></g></g></g></g></svg>