
<svg xmlns="http://www.w3.org/2000/svg" xmlns:xlink="http://www.w3.org/1999/xlink" width="40" height="40" viewBox="0 0 40 40" fill="none"><defs><rect id="path_0" x="0" y="0" width="40" height="40" /><rect id="path_1" x="0" y="0" width="31.25" height="31.25" /></defs><g opacity="1" transform="translate(0 0)  rotate(0 20 20)"><g opacity="1" transform="translate(0 0)  rotate(0 20 20)"><mask id="bg-mask" fill="white"><use xlink:href="#path_0"></use></mask><g mask="url(#bg-mask)" ><g opacity="1" transform="translate(4.375 4.375)  rotate(0 15.625 15.625)"><mask id="bg-mask" fill="white"><use xlink:href="#path_1"></use></mask><g mask="url(#bg-mask)" ><path id="分组 1" fill-rule="evenodd" style="fill:#171C27" transform="translate(2.7555420626835163 0)  rotate(0 12.868643835495066 15.621186839374309)" opacity="1" d="M4.98 30.19C6.18 30.8 7.41 31.07 8.38 30.81C9.07 30.66 9.65 30.2 9.96 29.58C10.72 29.57 11.56 29.23 12.9 29.14C13.3184 29.1078 13.7854 29.1792 14.2942 29.257C14.8921 29.3484 15.5477 29.4486 16.25 29.4C16.29 29.58 16.33 29.66 16.4 29.84C16.91 30.85 17.85 31.31 18.86 31.23C19.86 31.16 20.93 30.54 21.8 29.53C22.62 28.54 23.99 28.12 24.89 27.58C25.34 27.32 25.71 26.97 25.74 26.47C25.77 25.95 25.48 25.41 24.81 24.67L24.81 24.55L24.8 24.54C24.58 24.28 24.48 23.85 24.36 23.34C24.25 22.82 24.13 22.32 23.72 21.98C23.64 21.91 23.56 21.89 23.47 21.8C23.4 21.75 23.31 21.72 23.23 21.72C23.79 20.05 23.57 18.4 23 16.91C22.31 15.07 21.09 13.48 20.17 12.38C20.1526 12.3581 20.1353 12.3363 20.1179 12.3144C19.0965 11.0284 18.1203 9.79926 18.14 7.99C18.1412 7.87653 18.1428 7.75915 18.1445 7.63837C18.1841 4.77866 18.2502 0.00959476 13.52 0C13.32 0 13.11 0.01 12.9 0.03C8.30501 0.389245 8.56797 4.51061 8.72644 6.99431C8.75765 7.48348 8.78481 7.90913 8.77 8.23C8.67 9.65 8.38 10.77 7.41 12.16C6.25 13.53 4.64 15.74 3.87 18.04C3.51 19.13 3.34 20.23 3.5 21.28C3.44 21.33 3.39 21.39 3.35 21.46C3.01 21.81 2.77 22.24 2.49 22.55C2.23 22.81 1.86 22.9 1.45 23.07C1.05 23.25 0.6 23.42 0.33 23.96C0.21 24.2 0.15 24.47 0.16 24.74C0.16 25 0.19 25.26 0.23 25.44C0.238511 25.5032 0.247169 25.5651 0.255634 25.6256C0.316792 26.0628 0.367842 26.4277 0.28 26.7C-0.04 27.59 -0.08 28.19 0.14 28.63C0.37 29.07 0.84 29.24 1.37 29.42C2.42 29.68 3.85 29.59 4.98 30.19Z M15.5636 5.38219C15.4236 5.12219 15.2336 4.86219 14.9936 4.69219C14.7436 4.51219 14.5036 4.43219 14.2336 4.43219L14.2136 4.43219C13.9336 4.43219 13.6636 4.52219 13.4436 4.69219C13.1836 4.85219 12.9836 5.10219 12.8836 5.38219C12.7436 5.70219 12.6736 6.04219 12.6836 6.38219L12.6836 6.41219C12.6836 6.50219 12.6936 6.58219 12.7036 6.67219C12.9236 6.76219 13.2436 6.84219 13.4936 6.93219C13.4836 6.82219 13.4736 6.70219 13.4736 6.58219L13.4736 6.56219C13.4836 6.38219 13.5236 6.20219 13.5936 6.04219C13.6436 5.87219 13.7336 5.72219 13.8536 5.60219C13.9636 5.47219 14.0736 5.43219 14.1936 5.43219L14.2136 5.43219C14.3436 5.43219 14.4536 5.52219 14.5636 5.60219C14.6736 5.78219 14.7436 5.86219 14.8036 6.04219C14.8636 6.21219 14.8836 6.38219 14.8836 6.56219L14.8836 6.58219C14.8736 6.76219 14.8336 6.94219 14.7736 7.11219C14.7236 7.19219 14.5936 7.29219 14.5336 7.37219C14.6336 7.39219 14.7236 7.41219 14.8136 7.45219C14.9336 7.54219 15.0536 7.57219 15.1836 7.62219L15.3036 7.68219C15.4236 7.55219 15.5236 7.41219 15.5836 7.24219C15.7036 6.95219 15.7736 6.64219 15.7736 6.32219L15.7836 6.36219L15.7836 6.25219C15.7836 6.27219 15.7736 6.30219 15.7736 6.32219C15.7636 5.98219 15.6936 5.72219 15.5636 5.38219Z M10.3545 4.50899C10.1545 4.50899 9.98449 4.59899 9.81449 4.76899C9.64449 4.96899 9.51449 5.20899 9.44449 5.46899C9.35449 5.74899 9.31449 6.03899 9.34449 6.33899C9.35449 6.63899 9.41449 6.92899 9.54449 7.19899C9.64449 7.38899 9.76449 7.55899 9.90449 7.72899C9.96449 7.70899 10.0245 7.67899 10.0745 7.63899C10.1445 7.54899 10.2045 7.53899 10.3045 7.45899C10.2845 7.44899 10.2745 7.43899 10.2545 7.42899C10.1645 7.33899 10.1045 7.25899 10.0445 7.07899C9.98449 6.90899 9.95449 6.81899 9.93449 6.64899L9.93449 6.62899C9.92449 6.47899 9.93449 6.33899 9.96449 6.19899C9.98449 6.06899 10.0345 5.94899 10.1245 5.84899C10.1945 5.72899 10.2745 5.67899 10.3645 5.66899L10.3945 5.66899C10.4745 5.66899 10.5645 5.69899 10.6245 5.75899C10.7345 5.84899 10.8045 5.96899 10.8445 6.10899C10.9045 6.27899 10.9345 6.36899 10.9545 6.53899L10.9545 6.55899C10.9645 6.66899 10.9645 6.78899 10.9445 6.90899C11.1045 6.81899 11.2645 6.71899 11.4645 6.64899C11.4945 6.63899 11.5245 6.61899 11.5645 6.60899L11.5645 6.50899C11.5745 6.42899 11.5845 6.33899 11.5745 6.15899C11.5545 5.80899 11.4845 5.54899 11.3745 5.28899C11.2645 5.05899 11.1145 4.84899 10.9245 4.68899C10.7545 4.56899 10.5845 4.50899 10.4045 4.50899L10.3545 4.50899Z M14.3566 9.91965C15.0666 9.65965 15.5766 9.21965 15.7366 8.81964C15.8266 8.61965 15.8166 8.39964 15.7166 8.20965L15.7166 8.37965C15.6266 8.19965 15.4266 8.03965 15.0966 7.85965C14.4066 7.59965 14.1066 7.50965 13.7266 7.24965C13.0966 6.80965 12.5766 6.72965 12.1466 6.72965C11.9166 6.72965 11.7166 6.76965 11.5366 6.80965C11.0066 6.98965 10.6666 7.32965 10.4466 7.59965L10.4366 7.59965C10.3966 7.63965 10.3466 7.67965 10.2066 7.76965C10.0766 7.85965 9.87659 8.02964 9.58659 8.20965C9.32659 8.37965 9.24659 8.63965 9.32659 8.98965C9.42659 9.24965 9.70659 9.58965 10.2266 9.91965C10.5566 10.0896 10.7766 10.3496 11.0266 10.5296C11.1666 10.6196 11.3066 10.7096 11.4466 10.7796C11.6366 10.8496 11.8366 10.8796 12.0266 10.8696C12.5866 10.8996 12.9866 10.6996 13.3466 10.5196C13.7066 10.3496 14.0066 10.0896 14.3566 9.91965Z M12.6719 7.45219C12.7419 7.49219 12.7919 7.54219 12.8619 7.54219C12.9219 7.54219 13.0319 7.52219 13.0319 7.46219C13.0519 7.37219 12.9219 7.28219 12.8419 7.28219C12.7319 7.24219 12.6019 7.22219 12.5019 7.27219C12.4819 7.28219 12.4519 7.31219 12.4619 7.34219L12.4619 7.37219C12.4819 7.44219 12.6119 7.43219 12.6719 7.45219Z M11.53 7.45325C11.6 7.43325 11.72 7.44325 11.75 7.37325L11.74 7.37325L11.74 7.34325C11.75 7.31325 11.73 7.28325 11.7 7.27325C11.61 7.22325 11.47 7.24325 11.37 7.28325C11.29 7.28325 11.16 7.37325 11.17 7.45325C11.18 7.52325 11.28 7.54325 11.35 7.54325C11.42 7.54325 11.47 7.49325 11.53 7.45325Z M13.8693 9.43058C14.1793 9.25058 14.4793 9.04058 14.7693 8.82058C14.9993 8.56058 15.1293 8.41058 14.9593 8.39058C14.7893 8.39058 14.7993 8.56058 14.5993 8.74058C14.3293 8.91058 14.0093 9.17058 13.7493 9.35058C13.2993 9.61058 12.5693 9.95058 11.9293 9.95058C11.2993 9.95058 10.7993 9.61058 10.4193 9.35058C10.2293 9.17058 10.0693 9.00058 9.94925 8.91058C9.85925 8.83058 9.82925 8.67058 9.68925 8.65058C9.59925 8.65058 9.56925 8.91058 9.77925 9.09058C9.90925 9.17058 10.0693 9.35058 10.2693 9.52058C10.6693 9.78058 11.2293 10.1306 11.9393 10.1306C12.6393 10.1306 13.3093 9.69058 13.8693 9.43058Z M12.156 11.2991C12.116 11.2991 12.066 11.2991 12.016 11.2891C11.496 11.2891 11.146 11.1191 10.876 10.8591C10.596 10.6791 10.386 10.4191 10.106 10.2491C10.016 10.1591 9.79605 10.0391 9.72605 9.98913C9.60605 12.2791 8.07605 15.1791 7.33605 16.8491C6.83605 18.0291 6.54605 19.2991 6.49605 20.5891C5.17605 18.8191 6.14605 16.5491 6.65605 15.5691C7.23605 14.4791 7.32605 14.2191 7.18605 14.2991C6.66605 15.1491 5.84605 16.5091 5.52605 17.8991C5.36605 18.6291 5.33605 19.3491 5.54605 20.0391C5.76605 20.7291 6.22605 21.3391 7.04605 21.8591C8.16605 22.5391 8.92605 23.2291 9.37605 23.8391C9.82605 24.4491 9.96605 25.0091 9.82605 25.3491C9.74605 25.5491 9.59605 25.6991 9.41605 25.7891C9.24605 25.8391 9.04605 25.8791 8.80605 25.8791C8.94605 25.9991 9.06605 26.1491 9.16605 26.3091C9.36605 26.5191 9.54605 26.7491 9.68605 26.9991C11.996 28.5691 14.696 27.9591 16.656 26.5691C16.846 25.8991 17.036 25.2491 17.066 24.8091C17.116 23.8791 17.166 23.0691 17.336 22.3691C17.506 21.6991 17.806 21.1791 18.366 20.8291C18.456 20.8091 18.546 20.7791 18.636 20.7491C18.646 20.6591 18.656 20.6291 18.656 20.5691C18.826 19.5291 19.776 19.4391 20.966 19.9591C22.116 20.4791 22.546 20.9491 22.356 21.5591L22.376 21.5591C22.4031 21.5591 22.429 21.558 22.4545 21.5569C22.5046 21.5547 22.5531 21.5525 22.606 21.5591L22.606 21.6091C22.8461 20.8291 22.3461 20.3091 21.006 19.6091C20.916 19.6091 20.826 19.5591 20.736 19.5291C20.916 18.7891 20.876 18.0491 20.716 17.3491C20.346 15.8091 19.336 14.4591 18.566 13.7591C18.426 13.7591 18.446 13.9391 18.726 14.1991C19.436 14.8491 20.986 17.1891 20.146 19.3591C19.906 19.2991 19.686 19.2691 19.476 19.2791C19.156 17.4991 18.416 16.0391 18.046 15.3391C17.346 14.0391 16.256 11.3591 15.786 9.51913C15.516 9.90913 15.036 10.2591 14.426 10.4291L14.416 10.4291C14.136 10.5191 13.836 10.7791 13.456 10.9491C13.106 11.1291 12.696 11.2991 12.156 11.2991Z M18.5698 21.2095C18.1398 21.4495 17.8898 21.8895 17.7398 22.4895C17.5798 23.1195 17.5298 23.9195 17.4798 24.8495C17.4398 25.5695 17.1098 26.4495 16.8798 27.3195C16.6498 28.1895 16.5398 28.9995 16.8098 29.5195L16.8098 29.5295C17.2498 30.4395 17.9998 30.7695 18.8598 30.6995C19.7298 30.6295 20.7098 30.1095 21.5098 29.1495C22.4398 28.0295 23.8898 27.6195 24.7098 27.0995C25.1198 26.8395 25.3398 26.6695 25.3598 26.3295C25.3698 26.0195 25.1698 25.5295 24.5298 24.8395C24.1998 24.4695 24.1098 23.9795 23.9998 23.4595C23.8898 23.0095 23.7598 22.5795 23.4898 22.3195L23.4898 22.3095C23.1398 21.9795 22.7898 21.9495 22.3798 21.9595L22.1098 21.9795C21.6498 22.5395 20.5398 23.1495 19.7798 22.9695C19.0798 22.7995 18.6798 21.9595 18.6298 21.1795L18.5698 21.2095Z M8.84063 26.5433C8.27063 25.7933 7.61063 25.1033 7.29063 24.4133L7.29063 24.4033L6.10063 22.2433C5.69063 21.6933 5.26063 21.3333 4.77063 21.2633C4.70063 21.2533 4.63063 21.2433 4.57063 21.2433L4.55063 21.2433C4.18063 21.2433 3.94063 21.4233 3.69063 21.6833C3.40063 21.9933 3.15063 22.4233 2.82063 22.7733C2.46063 23.1233 2.01063 23.2133 1.62063 23.3833C1.24063 23.5633 0.940632 23.6433 0.730632 24.0833C0.560632 24.3833 0.600632 24.7833 0.670632 25.3033C0.676663 25.3395 0.682864 25.376 0.689112 25.4128C0.765739 25.8641 0.849325 26.3565 0.710632 26.7633L0.700632 26.7633C0.400632 27.5833 0.400632 28.1133 0.540632 28.3733C0.690632 28.6333 1.01063 28.8033 1.49063 28.8933C2.45063 29.0633 3.94063 28.9733 5.20063 29.6733C6.34063 30.2833 7.48063 30.4533 8.32063 30.2733C9.16063 30.0833 9.71063 29.5633 9.79063 28.5933L9.79063 28.5833C9.84063 28.0133 9.40063 27.3233 8.84063 26.5433Z " /></g></g></g></g></g></svg>